<?xml version="1.0" encoding="utf-8"?>
<!-- Generator: Adobe Illustrator 24.2.0, SVG Export Plug-In . SVG Version: 6.00 Build 0)  -->
<svg version="1.1" id="Layer_1" xmlns="http://www.w3.org/2000/svg" xmlns:xlink="http://www.w3.org/1999/xlink" x="0px" y="0px"
	 viewBox="0 0 1000 1000" style="enable-background:new 0 0 1000 1000;" xml:space="preserve">
<style type="text/css">
	.st0{fill:#FEC24B;}
	.st1{fill:#F3BD63;}
	.st2{fill:#F58220;}
	.st3{fill:#FCE069;}
	.st4{fill:#FCCB40;}
	.st5{fill:#EEAC38;}
	.st6{fill-rule:evenodd;clip-rule:evenodd;fill:#767676;}
	.st7{fill-rule:evenodd;clip-rule:evenodd;fill:#FFFFFF;}
</style>
<g>
	<path class="st0" d="M146.2,755.5l5-7.1l238.1-451.8l0.5-4.8l-105-197.3c-8.9-16.6-33.5-12.3-36.5,6.2L146.2,755.5z"/>
	<path class="st1" d="M466.3,441l78.2-80l-78.2-149.2c-7.5-14.1-28.3-14.1-35.5,0l-41.7,79.8v6.8L466.3,441z"/>
	<polygon class="st2" points="146.2,755.5 148.5,753.2 156.7,749.8 461.5,446.3 465.2,435.8 389.3,290.9 	"/>
	<path class="st3" d="M476.1,908.6l275.7-153.8L673,269.7c-2.5-15.3-21.2-21.2-31.9-10.3L146.2,755.5l274.3,153.1
		C437.6,918.4,458.8,918.4,476.1,908.6L476.1,908.6z"/>
	<path class="st4" d="M749.5,753.4l-78.2-481.2c-2.5-15-18-21.2-28.7-10.5L149.1,754.6l271.2,151.5c17.1,9.6,38.1,9.6,55.4,0
		L749.5,753.4z"/>
	<path class="st5" d="M476.1,904c-17.3,9.6-38.5,9.6-55.8,0L148.2,753.2l-2.3,2.3l274.3,153.1c17.3,9.6,38.5,9.6,55.8,0l275.7-153.8
		l-0.7-4.1L476.1,904z"/>
	
		<ellipse transform="matrix(0.1598 -0.9872 0.9872 0.1598 -146.1931 1273.0021)" class="st6" cx="674.7" cy="722.4" rx="179.3" ry="179.3"/>
	<path class="st7" d="M609.3,640.6c-9,0-16.2,7.2-16.2,16.2v65.8c0,9,7.2,16.2,16.2,16.2h131.6c9,0,16.2-7.2,16.2-16.2v-65.8
		c0-9-7.2-16.2-16.2-16.2H609.3z M612.8,658.7h124.7c0.9,0,1.6,0.7,1.6,1.6v23.8c0,0.9-0.7,1.6-1.6,1.6H612.8
		c-0.9,0-1.6-0.7-1.6-1.6v-23.8C611.2,659.4,611.9,658.7,612.8,658.7z M613.2,705.9h13.3c0.8,0,1.4,0.6,1.4,1.4v11.9
		c0,0.8-0.6,1.4-1.4,1.4h-13.3c-0.8,0-1.4-0.6-1.4-1.4v-11.9C611.8,706.5,612.4,705.9,613.2,705.9z M592.3,752.4V788
		c0,9,7.2,16.2,16.2,16.2h131.6c9,0,16.2-7.2,16.2-16.2v-35.6H592.3z M612.4,771.4h13.4c0.8,0,1.4,0.6,1.4,1.4v11.9
		c0,0.8-0.6,1.4-1.4,1.4h-13.4c-0.8,0-1.4-0.6-1.4-1.4v-11.9C611,772,611.6,771.4,612.4,771.4z"/>
</g>
</svg>
