<?xml version="1.0" encoding="utf-8"?>
<!-- Generator: Adobe Illustrator 24.3.0, SVG Export Plug-In . SVG Version: 6.00 Build 0)  -->
<svg version="1.1" id="Ebene_1" xmlns="http://www.w3.org/2000/svg" xmlns:xlink="http://www.w3.org/1999/xlink" x="0px" y="0px"
	 viewBox="0 0 94 94" style="enable-background:new 0 0 94 94;" xml:space="preserve">
<style type="text/css">
	.st0{fill:#FFFFFF;}
</style>
<g>
	<path class="st0" d="M47,0c26,0,47,21,47,47S73,94,47,94S0,73,0,47S21,0,47,0"/>
	<path d="M57.5,47.8c0.6,0.2,1.3-0.2,1.4-0.8c0.2-0.6-0.2-1.3-0.8-1.4c-0.6-0.2-1.3,0.2-1.4,0.8C56.4,47,56.9,47.6,57.5,47.8"/>
	<path d="M56.4,42.6c0.6-0.2,0.9-0.8,0.8-1.4c-0.2-0.6-0.8-0.9-1.4-0.8c-0.6,0.2-0.9,0.8-0.8,1.4C55.1,42.5,55.8,42.8,56.4,42.6"/>
	<path d="M51.2,37.1c-0.5,0.5-0.5,1.1,0,1.6c0.5,0.5,1.1,0.5,1.6,0c0.5-0.5,0.5-1.1,0-1.6C52.5,36.7,51.7,36.7,51.2,37.1"/>
	<path d="M47,35.6c-0.6-0.2-1.3,0.2-1.4,0.8c-0.2,0.6,0.2,1.3,0.8,1.4c0.6,0.2,1.3-0.2,1.4-0.8C47.9,36.3,47.6,35.7,47,35.6"/>
	<path d="M41.7,39.3c0.6-0.2,0.9-0.8,0.8-1.4c-0.2-0.6-0.8-0.9-1.4-0.8c-0.6,0.2-0.9,0.8-0.8,1.4C40.4,39.2,41,39.5,41.7,39.3"/>
	<path d="M36.8,41.4c-0.5,0.5-0.5,1.1,0,1.6c0.5,0.5,1.1,0.5,1.6,0c0.5-0.5,0.5-1.1,0-1.6C37.9,40.9,37.1,40.9,36.8,41.4"/>
	<path d="M36.5,46.2c-0.6-0.2-1.3,0.2-1.4,0.8c-0.2,0.6,0.2,1.3,0.8,1.4c0.6,0.2,1.3-0.2,1.4-0.8C37.6,47,37.1,46.4,36.5,46.2"/>
	<path d="M37.6,51.4c-0.6,0.2-0.9,0.8-0.8,1.4c0.2,0.6,0.8,0.9,1.4,0.8c0.6-0.2,0.9-0.8,0.8-1.4C38.9,51.5,38.2,51.2,37.6,51.4"/>
	<path d="M42.8,56.9c0.5-0.5,0.5-1.1,0-1.6c-0.5-0.5-1.1-0.5-1.6,0c-0.5,0.5-0.5,1.1,0,1.6C41.5,57.3,42.3,57.3,42.8,56.9"/>
	<path d="M47,58.4c0.6,0.2,1.3-0.2,1.4-0.8c0.2-0.6-0.2-1.3-0.8-1.4c-0.6-0.2-1.3,0.2-1.4,0.8C46.1,57.7,46.4,58.3,47,58.4"/>
	<path d="M52.3,54.7c-0.6,0.2-0.9,0.8-0.8,1.4c0.2,0.6,0.8,0.9,1.4,0.8c0.6-0.2,0.9-0.8,0.8-1.4C53.6,54.8,53,54.5,52.3,54.7"/>
	<path d="M57.2,52.6c0.5-0.5,0.5-1.1,0-1.6c-0.5-0.5-1.1-0.5-1.6,0c-0.5,0.5-0.5,1.1,0,1.6C56.1,53.1,56.9,53.1,57.2,52.6"/>
	<path d="M63.5,45.7c-0.8-0.2-1.4,0.2-1.6,0.9c-0.2,0.6,0.2,1.4,0.9,1.6c0.8,0.2,1.4-0.2,1.6-0.9C64.5,46.7,64.2,46.1,63.5,45.7"/>
	<path d="M61.3,40.6c0.8-0.2,1.1-0.9,0.9-1.6c-0.2-0.6-0.9-1.1-1.6-0.9c-0.8,0.2-1.1,0.9-0.9,1.6C59.8,40.3,60.6,40.7,61.3,40.6"/>
	<path d="M54.2,34.5c0.5,0.5,1.4,0.5,1.9,0c0.5-0.5,0.5-1.3,0-1.9c-0.5-0.5-1.4-0.5-1.9,0C53.6,33.2,53.6,34,54.2,34.5"/>
	<path d="M46.7,32.7c0.8,0.2,1.4-0.2,1.6-0.9c0.2-0.6-0.2-1.4-0.9-1.6s-1.4,0.2-1.6,0.9C45.6,31.8,45.9,32.6,46.7,32.7"/>
	<path d="M38.7,32.3c-0.8,0.2-1.1,0.9-0.9,1.6c0.2,0.6,0.9,1.1,1.6,0.9c0.8-0.2,1.1-0.9,0.9-1.6C40.1,32.6,39.3,32.1,38.7,32.3"/>
	<path d="M32.1,40.1c0.5,0.5,1.4,0.5,1.9,0c0.5-0.5,0.5-1.3,0-1.9c-0.5-0.5-1.4-0.5-1.9,0C31.6,38.9,31.6,39.6,32.1,40.1"/>
	<path d="M30.5,48.3c0.8,0.2,1.4-0.2,1.6-0.9c0.2-0.6-0.2-1.4-0.9-1.6c-0.8-0.2-1.4,0.2-1.6,0.9C29.5,47.3,29.8,48.1,30.5,48.3"/>
	<path d="M32.7,53.4c-0.8,0.2-1.1,0.9-0.9,1.6c0.2,0.6,0.9,1.1,1.6,0.9c0.8-0.2,1.1-0.9,0.9-1.6C34.2,53.7,33.4,53.3,32.7,53.4"/>
	<path d="M39.8,59.5c-0.5-0.5-1.4-0.5-1.9,0c-0.5,0.5-0.5,1.3,0,1.9c0.5,0.5,1.4,0.5,1.9,0C40.4,60.8,40.4,60,39.8,59.5"/>
	<path d="M47.3,61.3c-0.8-0.2-1.4,0.2-1.6,0.9c-0.2,0.6,0.2,1.4,0.9,1.6s1.4-0.2,1.6-0.9C48.4,62.2,47.9,61.4,47.3,61.3"/>
	<path d="M55.3,61.7c0.8-0.2,1.1-0.9,0.9-1.6c-0.2-0.6-0.9-1.1-1.6-0.9c-0.8,0.2-1.1,0.9-0.9,1.6C53.9,61.4,54.7,61.9,55.3,61.7"/>
	<path d="M61.9,53.9c-0.5-0.5-1.4-0.5-1.9,0c-0.5,0.5-0.5,1.3,0,1.9c0.5,0.5,1.4,0.5,1.9,0C62.4,55.1,62.4,54.4,61.9,53.9"/>
	<path d="M68.2,50.9c0.9,0.3,1.9-0.3,2-1.1c0.3-0.9-0.3-1.7-1.3-2c-0.9-0.2-1.9,0.3-2,1.1C66.7,49.8,67.2,50.8,68.2,50.9"/>
	<path d="M68.6,38.2c-0.3-0.9-1.3-1.4-2-1.1c-0.9,0.2-1.4,1.1-1.3,2c0.2,0.9,1.3,1.4,2,1.1C68.3,40.1,68.9,39.2,68.6,38.2"/>
	<path d="M61.3,29c-0.6-0.6-1.7-0.6-2.5,0c-0.6,0.6-0.6,1.7,0,2.4s1.7,0.6,2.5,0C61.9,30.7,61.9,29.6,61.3,29"/>
	<path d="M49,27.7c0.9,0.3,1.9-0.3,2-1.1c0.3-0.9-0.3-1.7-1.3-2c-0.9-0.3-1.9,0.3-2,1.1C47.6,26.6,48.1,27.6,49,27.7"/>
	<path d="M38.9,29.5c0.9-0.2,1.4-1.1,1.3-2c-0.3-0.9-1.3-1.4-2-1.1c-0.9,0.3-1.4,1.1-1.3,2C37,29.1,37.9,29.6,38.9,29.5"/>
	<path d="M30.7,33.4c-0.6-0.6-1.7-0.6-2.5,0c-0.6,0.6-0.6,1.7,0,2.3c0.6,0.6,1.7,0.6,2.5,0C31.3,35.1,31.3,34,30.7,33.4"/>
	<path d="M25.9,43.1c-0.9-0.2-1.9,0.3-2,1.1c-0.3,0.9,0.3,1.7,1.3,2c0.9,0.3,1.9-0.3,2-1.1C27.3,44.2,26.8,43.2,25.9,43.1"/>
	<path d="M26.6,53.7c-0.9,0.3-1.4,1.1-1.3,2c0.3,0.9,1.3,1.4,2,1.1c0.9-0.3,1.4-1.1,1.3-2C28.4,54,27.4,53.4,26.6,53.7"/>
	<path d="M35.2,62.7c-0.6-0.6-1.7-0.6-2.5,0c-0.6,0.6-0.6,1.7,0,2.4c0.6,0.6,1.7,0.6,2.5,0C35.9,64.4,35.9,63.3,35.2,62.7"/>
	<path d="M45,66.3c-0.9-0.3-1.9,0.3-2,1.1c-0.3,0.9,0.3,1.7,1.3,2c0.9,0.3,1.9-0.3,2-1.1C46.4,67.4,45.9,66.4,45,66.3"/>
	<path d="M55.1,64.5c-0.9,0.3-1.4,1.1-1.3,2c0.3,0.9,1.3,1.4,2,1.1c0.9-0.3,1.4-1.1,1.3-2C57,64.9,56.1,64.4,55.1,64.5"/>
	<path d="M65.6,60.6c0.6-0.6,0.6-1.7,0-2.3c-0.6-0.6-1.7-0.6-2.5,0c-0.6,0.6-0.6,1.7,0,2.3C63.9,61.3,65,61.3,65.6,60.6"/>
	<path d="M74.3,52c-1.1-0.3-2.2,0.3-2.5,1.4c-0.3,1.1,0.3,2,1.4,2.4c1.1,0.3,2.2-0.3,2.5-1.4C76,53.4,75.4,52.3,74.3,52"/>
	<path d="M74.3,42c1.1-0.3,1.7-1.4,1.4-2.3c-0.3-1.1-1.4-1.6-2.5-1.4c-1.1,0.3-1.7,1.4-1.4,2.4C72.2,41.7,73.3,42.3,74.3,42"/>
	<path d="M65.2,29.5c0.8,0.8,2,0.8,2.8,0c0.8-0.8,0.8-2,0-2.7c-0.8-0.8-2-0.8-2.8,0C64.4,27.6,64.4,28.7,65.2,29.5"/>
	<path d="M53.7,23c1.1,0.3,2.2-0.3,2.5-1.4c0.3-1.1-0.3-2-1.4-2.4c-1.1-0.3-2.2,0.3-2.5,1.4C52,21.8,52.6,22.9,53.7,23"/>
	<path d="M40.3,23c1.1-0.3,1.7-1.4,1.4-2.4c-0.3-1.1-1.4-1.6-2.5-1.4c-1.1,0.3-1.7,1.4-1.4,2.4C38.2,22.7,39.3,23.3,40.3,23"/>
	<path d="M26,29.5c0.8,0.8,2,0.8,2.8,0c0.8-0.8,0.8-2,0-2.7c-0.8-0.8-2-0.8-2.8,0C25.2,27.6,25.2,28.7,26,29.5"/>
	<path d="M20.7,38.2c-1.1-0.3-2.2,0.3-2.5,1.4c-0.3,1.1,0.3,2,1.4,2.3s2.2-0.3,2.5-1.4C22.4,39.6,21.8,38.5,20.7,38.2"/>
	<path d="M19.7,52c-1.1,0.3-1.7,1.4-1.4,2.3c0.3,1.1,1.4,1.6,2.5,1.4c1.1-0.3,1.7-1.4,1.4-2.4C21.8,52.3,20.7,51.7,19.7,52"/>
	<path d="M28.8,64.5c-0.8-0.8-2-0.8-2.8,0s-0.8,2,0,2.7c0.8,0.8,2,0.8,2.8,0C29.6,66.4,29.6,65.3,28.8,64.5"/>
	<path d="M40.3,71c-1.1-0.3-2.2,0.3-2.5,1.4c-0.3,1.1,0.3,2,1.4,2.3s2.2-0.3,2.5-1.4C42,72.2,41.4,71.1,40.3,71"/>
	<path d="M53.7,71c-1.1,0.3-1.7,1.4-1.4,2.3c0.3,1.1,1.4,1.6,2.5,1.4c1.1-0.3,1.7-1.3,1.4-2.3C55.8,71.3,54.7,70.7,53.7,71"/>
	<path d="M68,64.5c-0.8-0.8-2-0.8-2.8,0s-0.8,2,0,2.7c0.8,0.8,2,0.8,2.8,0C68.8,66.4,68.8,65.3,68,64.5"/>
	<path d="M53,48.1c-0.5,0.5-0.9,0.9-1.4,1.3c-0.3,0.3-0.8,0.6-1.1,0.9c-0.6,0.5-1.3,0.5-1.9,0.2c-0.5-0.2-0.8-0.5-0.9-1.1
		c-0.6,0.5-1.3,1.1-2.2,1.3c0,0.3-0.2,0.6-0.2,1.1c0,0.2-0.2,0.3-0.2,0.5c0,0.2-0.2,0.3-0.3,0.3c-0.6,0.2-1.9,0.5-1.9,0.5
		c0.6-3.1,1.4-6.3,2-9.4h2c-0.2,0.5-1.1,5-1.1,5c0,0.5,0.3,0.8,0.8,0.6c0.3-0.2,0.6-0.3,0.9-0.5v-0.2c0.3-1.7,0.8-3.3,1.1-5v-0.2
		h2.2c-0.2,0.5-0.8,3.8-1.1,5c0,0.2,0,0.2,0,0.3c0,0.3,0.2,0.5,0.5,0.5s0.5,0,0.6,0c0.2-0.2,0.5-0.3,0.6-0.5
		c0.2-0.2,0.5-0.3,0.6-0.5C52.5,48.1,52.6,48.1,53,48.1"/>
</g>
</svg>
