<?xml version="1.0" encoding="utf-8"?>
<!-- Generator: Adobe Illustrator 26.4.1, SVG Export Plug-In . SVG Version: 6.00 Build 0)  -->
<svg version="1.1" id="Layer_1" xmlns="http://www.w3.org/2000/svg" xmlns:xlink="http://www.w3.org/1999/xlink" x="0px" y="0px"
	 viewBox="0 0 124.1 91.3" style="enable-background:new 0 0 124.1 91.3;" xml:space="preserve">
<style type="text/css">
	.st0{fill:#6355A2;}
	.st1{fill:#484082;}
</style>
<g>
	<path class="st0" d="M44.4,57.3c0,0.1,0.1,0.1,0.1,0.1c1.7,1.4,3.6,1.9,5.7,1.9c7.5,0,15-0.1,22.6,0c1.9,0,3.8-0.4,5.5-1.2
		c3.5-1.5,5-4.8,3.6-8.4c-3.7-9.4-7.4-18.8-11.2-28.2c-1-2.4-1.8-4.8-1.7-7.5c0.1-2.3,0-4.5,0-6.8c0-0.7-0.2-1-1-1
		C64,6.2,59.9,6.2,55.8,6.2c-0.8,0-1,0.2-1,1c0.1,3,0,6.1,0.1,9.1c0,0.7-0.1,1.4-0.4,2c-2.5,6.3-5,12.6-7.5,18.9
		c-1.6,4.2-3.3,8.3-4.9,12.5C40.9,52.9,41.9,56,44.4,57.3z M53.6,29.7c-0.1,0.5,0,1,0.4,1.5c0-1.3,0.4-2.4,1.4-3.3
		c0.4-0.1,0.9-0.2,1.3-0.2c0,0,0.1,0,0.1-0.1c0,0-0.1,0-0.1,0.1c0.4,0.2,0.7,0.3,1.1,0.5c0.2,0.2,0.4,0.4,0.6,0.7c0,0,0,0,0,0
		c0.5,1.1,0.5,2.2,0.2,3.3l0,0.1c0,0,0,0,0,0c-0.5,0.6-1,1.1-1.7,1.4c-0.1,0-0.3,0-0.4,0c-0.1,0-0.1,0-0.2,0
		c-0.4-0.2-0.8-0.3-1.2-0.5c0,0,0,0,0,0c-0.3-0.4-0.5-0.9-0.9-1.2c0-0.2-0.1-0.5-0.1-0.7C53.7,30.7,53.5,30.2,53.6,29.7z M57.6,36.1
		c-0.1,0-0.2,0.1-0.3,0.2C57.5,36.2,57.5,36.1,57.6,36.1z M67.9,29.8c-0.5,1-1.4,1.6-2.6,1.6c-1.2,0-1.9-0.8-2.4-1.8
		c-0.3-0.5-0.4-1.1-0.4-1.7c0-0.5,0.1-0.9,0.2-1.4c0.4-1.2,1.5-2.1,2.6-2.1c1.3,0,2.1,0.7,2.6,1.8C68.5,27.4,68.5,28.6,67.9,29.8z
		 M57.4,27.4c-0.1-0.1-0.3,0-0.5,0C57.2,27.4,57.3,27.4,57.4,27.4z M46.1,47c0-0.5,0.1-1,0.2-1.5C46.2,45.9,46.1,46.5,46.1,47
		c0.4-0.3,0.5-0.8,0.7-1.2c0.8-2,1.7-3.9,2.4-5.9c0.4-1.1,1.1-1.7,2.2-1.9c1.3-0.2,2.6-0.6,3.8-0.9c0.1,0,0.3,0,0.4-0.1
		c0-0.1,0.1-0.1,0.1-0.2c0,0.1-0.1,0.1-0.1,0.2c0.4,0.1,0.8,0,1.1-0.2c0.1,0,0.3,0,0.4,0c0-0.1,0.1-0.3,0.1-0.4
		c-0.1,0.1-0.1,0.2-0.1,0.4c3.7-0.3,7.4-0.2,11,0.2c0.1,0,0.3,0,0.4,0c1.6,0.4,3.2,0.8,4.8,1.1c0.5,0.1,0.9,0.4,1.1,0.9
		c1.4,3.3,2.8,6.6,4.1,10c0.9,2.5,0.1,4.7-1.9,5.9c-1,0.6-2.1,1-3.3,1.3c-1.6,0.4-3.2,0-4.8,0.3c-3.6,0-7.2-0.1-10.8,0.1
		c-0.1,0.2-0.3,0.3-0.4,0.3c0.2,0,0.3-0.1,0.4-0.3c-0.4,0-0.8-0.1-1.2-0.1c-2.7-0.1-5.4,0.3-8.1-0.7c-0.1,0-0.2-0.1-0.3-0.1
		c0,0,0,0,0,0c-0.2-0.3-0.6-0.4-0.9-0.6c-1.9-1.2-2.7-3-2.2-5.1c0.2-0.8,0.5-1.6,0.7-2.4C46.1,47.5,46.2,47.2,46.1,47z"/>
	<path class="st1" d="M54.7,5.1c3.8,0,7.7,0,11.5-0.1c1,0,1.9,0,2.9,0c1.4-0.1,2.3-1,2.3-2.4c0-1.7-1-2.6-2.9-2.6
		c-4.6,0-9.2,0.1-13.9,0.1c-1.6,0-2.7,1-2.7,2.5C51.9,4.1,53.1,5.1,54.7,5.1z"/>
</g>
<g>
	<path class="st0" d="M16.8,85.2c0,2.3,0.1,4.2,0.1,5.7h-4.8l-0.3-2.5h-0.1c-0.7,1.1-2.4,2.9-5.5,2.9c-3.6,0-6.2-2.3-6.2-7.7V73.1
		h5.5v9.5c0,2.6,0.8,4.2,2.8,4.2c1.5,0,2.4-1,2.7-1.9c0.1-0.3,0.2-0.7,0.2-1.2V73.1h5.5V85.2z"/>
	<path class="st0" d="M21.2,78.8c0-2.2-0.1-4.1-0.1-5.7h4.8l0.3,2.5h0.1c0.7-1.1,2.5-2.9,5.5-2.9c3.6,0,6.4,2.4,6.4,7.7v10.5h-5.5
		v-9.9c0-2.3-0.8-3.9-2.8-3.9c-1.5,0-2.4,1.1-2.8,2.1c-0.1,0.3-0.2,0.9-0.2,1.4v10.3h-5.5V78.8z"/>
	<path class="st0" d="M48.2,68.2c0,1.5-1.1,2.8-3,2.8c-1.7,0-2.9-1.2-2.9-2.8c0-1.6,1.2-2.8,2.9-2.8C47.1,65.4,48.2,66.6,48.2,68.2z
		 M42.5,90.9V73.1h5.5v17.8H42.5z"/>
	<path class="st0" d="M58.6,68.1v5.1h4v4.1h-4v6.4c0,2.1,0.5,3.1,2.2,3.1c0.7,0,1.3-0.1,1.6-0.2l0,4.2c-0.7,0.3-2,0.5-3.6,0.5
		c-1.8,0-3.3-0.6-4.2-1.5c-1-1.1-1.5-2.7-1.5-5.3v-7.3h-2.4v-4.1h2.4v-3.8L58.6,68.1z"/>
	<path class="st0" d="M72,68.1v5.1h4v4.1h-4v6.4c0,2.1,0.5,3.1,2.2,3.1c0.7,0,1.3-0.1,1.6-0.2l0,4.2c-0.7,0.3-2,0.5-3.6,0.5
		c-1.8,0-3.3-0.6-4.2-1.5c-1-1.1-1.5-2.7-1.5-5.3v-7.3h-2.4v-4.1h2.4v-3.8L72,68.1z"/>
	<path class="st0" d="M83.2,83.8c0.2,2.3,2.4,3.4,5,3.4c1.9,0,3.4-0.3,4.9-0.8l0.7,3.7c-1.8,0.7-4.1,1.1-6.4,1.1c-6,0-9.5-3.5-9.5-9
		c0-4.5,2.8-9.5,9-9.5c5.8,0,7.9,4.5,7.9,8.9c0,1-0.1,1.8-0.2,2.2H83.2z M89.7,80c0-1.3-0.6-3.6-3.1-3.6c-2.3,0-3.3,2.1-3.4,3.6
		H89.7z"/>
	<path class="st0" d="M98.1,86.1c1,0.6,3.1,1.3,4.7,1.3c1.7,0,2.4-0.6,2.4-1.5c0-0.9-0.6-1.4-2.6-2.1c-3.7-1.2-5.1-3.2-5.1-5.3
		c0-3.3,2.8-5.8,7.2-5.8c2.1,0,3.9,0.5,5,1l-1,3.8c-0.8-0.4-2.3-1-3.9-1c-1.3,0-2.1,0.5-2.1,1.4c0,0.9,0.7,1.3,2.9,2.1
		c3.4,1.1,4.8,2.9,4.8,5.5c0,3.3-2.6,5.8-7.7,5.8c-2.3,0-4.4-0.5-5.8-1.3L98.1,86.1z"/>
	<path class="st0" d="M120.1,68.1v5.1h4v4.1h-4v6.4c0,2.1,0.5,3.1,2.2,3.1c0.7,0,1.3-0.1,1.6-0.2l0,4.2c-0.7,0.3-2,0.5-3.6,0.5
		c-1.8,0-3.3-0.6-4.2-1.5c-1-1.1-1.5-2.7-1.5-5.3v-7.3h-2.4v-4.1h2.4v-3.8L120.1,68.1z"/>
</g>
</svg>
